<svg width="30" height="31" viewBox="0 0 30 31" fill="none" xmlns="http://www.w3.org/2000/svg">
<path d="M10.8018 0C9.80082 0 8.88541 0.564465 8.43594 1.45883L7.39536 3.52938H4.41305C1.97579 3.52938 0 5.50516 0 7.94243V22.0653C0 24.5025 1.97579 26.4783 4.41305 26.4783H13.4069C13.121 25.9191 12.8878 25.3284 12.7137 24.7131H4.41305C2.95069 24.7131 1.76522 23.5276 1.76522 22.0653V7.94243C1.76522 6.48007 2.95069 5.2946 4.41305 5.2946H7.93959C8.27325 5.2946 8.57839 5.10645 8.72822 4.80832L10.0132 2.2515C10.163 1.95338 10.4681 1.76522 10.8018 1.76522H17.4465C17.7808 1.76522 18.0864 1.95413 18.2359 2.25318L19.5123 4.80663C19.6618 5.10569 19.9674 5.2946 20.3017 5.2946H23.8304C25.2929 5.2946 26.4782 6.48007 26.4782 7.94243V13.4194C27.11 13.7431 27.7015 14.1339 28.2435 14.5825V7.94243C28.2435 5.50518 26.2678 3.52938 23.8304 3.52938H20.8474L19.8149 1.4639C19.3663 0.566742 18.4495 0 17.4465 0H10.8018Z" fill="#212121"/>
<path d="M14.1133 7.06094C17.4251 7.06094 20.2043 9.34101 20.967 12.417C20.372 12.4835 19.7931 12.6038 19.2355 12.7728C18.639 10.5015 16.5718 8.82616 14.1133 8.82616C11.1885 8.82616 8.8176 11.1971 8.8176 14.1218C8.8176 16.5804 10.493 18.6476 12.7643 19.2441C12.5952 19.8017 12.475 20.3805 12.4085 20.9756C9.33248 20.213 7.05238 17.4337 7.05238 14.1218C7.05238 10.2222 10.2136 7.06094 14.1133 7.06094Z" fill="#212121"/>
<path d="M30 22.0653C30 26.4524 26.4436 30.0087 22.0565 30.0087C17.6696 30.0087 14.1131 26.4524 14.1131 22.0653C14.1131 17.6782 17.6696 14.1218 22.0565 14.1218C26.4436 14.1218 30 17.6782 30 22.0653ZM22.9391 18.5348C22.9391 18.0474 22.544 17.6522 22.0565 17.6522C21.5691 17.6522 21.1739 18.0474 21.1739 18.5348V21.1826H18.526C18.0387 21.1826 17.6434 21.5779 17.6434 22.0653C17.6434 22.5526 18.0387 22.9479 18.526 22.9479H21.1739V25.5957C21.1739 26.0831 21.5691 26.4783 22.0565 26.4783C22.544 26.4783 22.9391 26.0831 22.9391 25.5957V22.9479H25.5869C26.0745 22.9479 26.4695 22.5526 26.4695 22.0653C26.4695 21.5779 26.0745 21.1826 25.5869 21.1826H22.9391V18.5348Z" fill="#212121"/>
</svg>
