<svg width="324" height="277" viewBox="0 0 324 277" fill="none" xmlns="http://www.w3.org/2000/svg">
<g clip-path="url(#clip0_1_3)">
<path d="M31.1578 233.348L28.3042 223.755C23.2448 221.928 18.0685 220.345 12.8 219.014L12.4398 223.472L10.9791 218.561C4.44514 216.968 0 216.268 0 216.268C0 216.268 6.00283 235.73 18.5975 250.608L33.2714 252.806L21.8716 254.207C23.4559 255.832 25.1585 257.37 26.9693 258.813C45.2888 273.307 65.6936 279.957 72.5443 273.666C79.3949 267.375 70.0975 250.525 51.7779 236.032C46.0987 231.539 38.9645 227.933 31.8229 225.094L31.1578 233.348Z" fill="#F2F2F2"/>
<path d="M58.2949 222.929L61.6696 213.46C58.4471 209.666 54.9762 206.03 51.2734 202.57L48.2615 206.227L49.9893 201.379C45.3606 197.139 41.9803 194.581 41.9803 194.581C41.9803 194.581 35.3184 213.886 37.0758 232.172L48.305 240.518L37.6948 236.695C38.066 238.784 38.5911 240.851 39.2668 242.884C46.1596 263.364 59.5942 278.047 69.2736 275.68C78.9529 273.313 81.2123 254.792 74.3195 234.313C72.1828 227.964 68.2618 221.734 63.8697 216.157L58.2949 222.929Z" fill="#F2F2F2"/>
<path d="M226.086 65.6215H224.306V24.0572C224.306 20.898 223.576 17.7697 222.157 14.8509C220.739 11.9322 218.66 9.28013 216.039 7.04621C213.418 4.81229 210.307 3.04025 206.883 1.83126C203.459 0.622272 199.789 1.52588e-05 196.082 1.52588e-05H92.7695C85.2842 1.52588e-05 78.1055 2.53461 72.8126 7.04621C67.5197 11.5578 64.5461 17.6769 64.5461 24.0572V252.086C64.5461 255.245 65.2762 258.373 66.6945 261.292C68.1129 264.211 70.1918 266.863 72.8126 269.097C75.4333 271.331 78.5447 273.103 81.9689 274.312C85.3931 275.521 89.0631 276.143 92.7695 276.143H196.082C203.567 276.143 210.746 273.608 216.039 269.097C221.332 264.585 224.305 258.466 224.305 252.086V95.2077H226.085L226.086 65.6215Z" fill="#E6E6E6"/>
<path d="M197.221 6.25652H183.736C184.357 7.55261 184.593 8.95882 184.426 10.3513C184.258 11.7437 183.691 13.0796 182.775 14.2414C181.859 15.4031 180.622 16.355 179.173 17.0131C177.723 17.6712 176.106 18.0154 174.464 18.0154H115.277C113.635 18.0153 112.019 17.671 110.569 17.0128C109.12 16.3547 107.883 15.4028 106.967 14.2411C106.051 13.0794 105.484 11.7435 105.317 10.3511C105.149 8.95869 105.386 7.55255 106.006 6.25652H93.4107C87.8207 6.25652 82.4597 8.14932 78.507 11.5185C74.5543 14.8878 72.3337 19.4574 72.3337 24.2222V251.92C72.3337 256.685 74.5543 261.254 78.507 264.623C82.4597 267.993 87.8207 269.886 93.4107 269.886H197.221C202.811 269.886 208.172 267.993 212.125 264.623C216.077 261.254 218.298 256.685 218.298 251.92V24.2218C218.298 19.4571 216.077 14.8876 212.124 11.5184C208.172 8.14927 202.811 6.25652 197.221 6.25652Z" fill="white"/>
<path d="M132.088 96.9597C132.087 95.3681 132.579 93.8045 133.513 92.4263C134.447 91.0481 135.79 89.9038 137.408 89.1088C135.791 88.3129 133.957 87.8937 132.09 87.8936C130.223 87.8934 128.388 88.3122 126.771 89.1078C125.154 89.9034 123.812 91.0478 122.878 92.426C121.944 93.8042 121.453 95.3677 121.453 96.9591C121.453 98.5506 121.944 100.114 122.878 101.492C123.812 102.87 125.154 104.015 126.771 104.81C128.388 105.606 130.223 106.025 132.09 106.025C133.957 106.024 135.791 105.605 137.408 104.809C135.79 104.015 134.447 102.871 133.513 101.493C132.579 100.114 132.087 98.5511 132.088 96.9597Z" fill="#CCCCCC"/>
<path d="M145.458 96.9597C145.457 95.3681 145.949 93.8045 146.883 92.4262C147.817 91.048 149.16 89.9038 150.778 89.1088C149.161 88.3129 147.327 87.8937 145.46 87.8936C143.593 87.8934 141.759 88.3122 140.142 89.1078C138.525 89.9034 137.182 91.0478 136.248 92.426C135.315 93.8042 134.823 95.3677 134.823 96.9591C134.823 98.5506 135.315 100.114 136.248 101.492C137.182 102.87 138.525 104.015 140.142 104.81C141.759 105.606 143.593 106.025 145.46 106.025C147.327 106.024 149.161 105.605 150.778 104.809C149.16 104.015 147.817 102.871 146.883 101.493C145.949 100.114 145.458 98.5511 145.458 96.9597Z" fill="#CCCCCC"/>
<path d="M158.524 106.025C164.398 106.025 169.16 101.966 169.16 96.9593C169.16 91.9525 164.398 87.8938 158.524 87.8938C152.651 87.8938 147.889 91.9525 147.889 96.9593C147.889 101.966 152.651 106.025 158.524 106.025Z" fill="black"/>
<path d="M176.299 125.275H114.313C113.723 125.274 113.157 125.074 112.74 124.718C112.323 124.362 112.088 123.88 112.087 123.377V70.5413C112.088 70.0383 112.323 69.5561 112.74 69.2004C113.157 68.8447 113.723 68.6446 114.313 68.6441H176.299C176.889 68.6446 177.455 68.8447 177.872 69.2004C178.289 69.5561 178.524 70.0383 178.525 70.5413V123.377C178.524 123.88 178.289 124.362 177.872 124.718C177.455 125.074 176.889 125.274 176.299 125.275ZM114.313 69.4034C113.959 69.4037 113.62 69.5237 113.369 69.7371C113.119 69.9505 112.978 70.2399 112.978 70.5417V123.378C112.978 123.679 113.119 123.969 113.369 124.182C113.62 124.396 113.959 124.516 114.313 124.516H176.299C176.653 124.516 176.992 124.396 177.243 124.182C177.493 123.969 177.634 123.679 177.634 123.378V70.5417C177.634 70.2399 177.493 69.9505 177.243 69.7371C176.992 69.5237 176.653 69.4037 176.299 69.4034H114.313Z" fill="#CCCCCC"/>
<path d="M190.139 165.776H95.0719V166.535H190.139V165.776Z" fill="#CCCCCC"/>
<path d="M98.0742 161.037C99.7323 161.037 101.076 159.891 101.076 158.478C101.076 157.065 99.7323 155.919 98.0742 155.919C96.416 155.919 95.0719 157.065 95.0719 158.478C95.0719 159.891 96.416 161.037 98.0742 161.037Z" fill="black"/>
<path d="M190.139 191.365H95.0719V192.124H190.139V191.365Z" fill="#CCCCCC"/>
<path d="M98.0742 186.627C99.7323 186.627 101.076 185.481 101.076 184.068C101.076 182.655 99.7323 181.509 98.0742 181.509C96.416 181.509 95.0719 182.655 95.0719 184.068C95.0719 185.481 96.416 186.627 98.0742 186.627Z" fill="black"/>
<path d="M188.4 220.506H158.356C157.837 220.505 157.339 220.329 156.972 220.017C156.605 219.704 156.399 219.28 156.398 218.837V209.861C156.399 209.419 156.605 208.995 156.972 208.682C157.339 208.369 157.837 208.193 158.356 208.193H188.4C188.919 208.193 189.416 208.369 189.783 208.682C190.15 208.995 190.356 209.419 190.357 209.861V218.837C190.356 219.28 190.15 219.704 189.783 220.017C189.416 220.329 188.919 220.505 188.4 220.506Z" fill="black"/>
<path d="M107.867 161.037C109.526 161.037 110.87 159.891 110.87 158.478C110.87 157.065 109.526 155.919 107.867 155.919C106.209 155.919 104.865 157.065 104.865 158.478C104.865 159.891 106.209 161.037 107.867 161.037Z" fill="black"/>
<path d="M117.661 161.037C119.319 161.037 120.663 159.891 120.663 158.478C120.663 157.065 119.319 155.919 117.661 155.919C116.003 155.919 114.659 157.065 114.659 158.478C114.659 159.891 116.003 161.037 117.661 161.037Z" fill="black"/>
<path d="M107.867 186.627C109.526 186.627 110.87 185.481 110.87 184.068C110.87 182.655 109.526 181.509 107.867 181.509C106.209 181.509 104.865 182.655 104.865 184.068C104.865 185.481 106.209 186.627 107.867 186.627Z" fill="black"/>
<path d="M117.661 186.627C119.319 186.627 120.663 185.481 120.663 184.068C120.663 182.655 119.319 181.509 117.661 181.509C116.003 181.509 114.659 182.655 114.659 184.068C114.659 185.481 116.003 186.627 117.661 186.627Z" fill="black"/>
<path d="M322.79 277H10.4745C9.80594 277 9.26437 276.798 9.26437 276.548C9.26437 276.299 9.80594 276.096 10.4745 276.096H322.79C323.458 276.096 324 276.299 324 276.548C324 276.798 323.458 277 322.79 277Z" fill="#3F3D56"/>
<path d="M245.628 181.482C245.841 181.565 246.046 181.663 246.241 181.774L265.751 174.676L266.448 170.295L274.244 170.254L273.783 180.302L248.032 186.107C247.978 186.259 247.913 186.409 247.837 186.555C247.465 187.232 246.866 187.8 246.116 188.188C245.366 188.576 244.498 188.767 243.622 188.736C242.745 188.705 241.899 188.454 241.189 188.014C240.479 187.575 239.938 186.966 239.632 186.265C239.327 185.564 239.271 184.802 239.473 184.074C239.674 183.346 240.123 182.685 240.764 182.174C241.404 181.663 242.208 181.324 243.073 181.201C243.938 181.078 244.827 181.176 245.628 181.482Z" fill="#FFB8B8"/>
<path d="M277.079 272.53H271.746L269.209 254.996L277.08 254.997L277.079 272.53Z" fill="#FFB8B8"/>
<path d="M267.937 271.231H278.221V276.751H261.461C261.461 275.287 262.143 273.883 263.358 272.848C264.572 271.813 266.219 271.231 267.937 271.231Z" fill="#2F2E41"/>
<path d="M297.819 271.246L292.512 271.691L287.97 254.454L295.803 253.797L297.819 271.246Z" fill="#FFB8B8"/>
<path d="M288.572 270.717L298.807 269.857L299.442 275.351L282.762 276.751C282.679 276.03 282.763 275.301 283.01 274.608C283.256 273.914 283.661 273.269 284.201 272.708C284.74 272.148 285.404 271.684 286.154 271.342C286.904 271 287.725 270.788 288.572 270.717Z" fill="#2F2E41"/>
<path d="M278.563 151.698C284.464 151.698 289.247 147.621 289.247 142.592C289.247 137.562 284.464 133.485 278.563 133.485C272.663 133.485 267.879 137.562 267.879 142.592C267.879 147.621 272.663 151.698 278.563 151.698Z" fill="#FFB8B8"/>
<path d="M270.554 268.984C270.096 268.985 269.652 268.848 269.3 268.597C268.949 268.347 268.713 267.998 268.634 267.613C265.873 254.552 256.851 211.846 256.635 210.663C256.63 210.636 256.628 210.609 256.628 210.581V207.397C256.628 207.281 256.67 207.168 256.75 207.074L257.942 205.651C257.998 205.582 258.072 205.526 258.159 205.485C258.245 205.445 258.341 205.422 258.439 205.419C265.234 205.147 287.489 204.351 288.564 205.496C289.644 206.647 289.263 210.134 289.175 210.821L289.18 210.893L299.178 265.395C299.256 265.83 299.13 266.273 298.828 266.63C298.526 266.986 298.071 267.226 297.562 267.299L291.317 268.176C290.852 268.24 290.376 268.159 289.974 267.948C289.573 267.738 289.274 267.412 289.131 267.029C287.2 261.768 280.723 244.071 278.479 237.224C278.465 237.18 278.432 237.143 278.388 237.118C278.344 237.093 278.291 237.083 278.239 237.089C278.187 237.096 278.139 237.118 278.104 237.152C278.07 237.186 278.051 237.23 278.052 237.275C278.164 243.803 278.435 260.457 278.529 266.209L278.539 266.829C278.543 267.248 278.362 267.654 278.033 267.965C277.703 268.277 277.248 268.471 276.759 268.511L270.737 268.977C270.676 268.982 270.614 268.984 270.554 268.984Z" fill="#2F2E41"/>
<path d="M271.783 155.279C269.918 156.224 268.803 157.96 268.162 159.727C266.977 162.997 266.264 166.379 266.038 169.797L265.361 180.03L256.985 207.16C264.245 212.396 268.432 211.206 278.204 206.923C287.976 202.641 289.093 208.351 289.093 208.351L291.047 185.267L293.839 160.042C293.212 159.399 292.503 158.818 291.724 158.309C289.144 156.599 286.141 155.41 282.943 154.832C279.745 154.254 276.435 154.303 273.262 154.974L271.783 155.279Z" fill="black"/>
<path d="M269.062 186.961C269.287 187.033 269.506 187.12 269.715 187.222L289.006 178.992L289.326 174.533L297.284 174.065L297.71 184.229L271.93 191.496C271.72 192.266 271.239 192.963 270.553 193.494C269.867 194.025 269.007 194.365 268.088 194.47C267.169 194.575 266.234 194.438 265.409 194.079C264.583 193.72 263.905 193.155 263.465 192.459C263.025 191.763 262.844 190.97 262.946 190.185C263.048 189.399 263.428 188.659 264.036 188.062C264.643 187.465 265.45 187.04 266.347 186.843C267.245 186.647 268.192 186.688 269.062 186.961Z" fill="#FFB8B8"/>
<path d="M293.699 160.158C298.446 161.586 299.282 177.055 299.282 177.055C293.698 174.438 286.997 178.721 286.997 178.721C286.997 178.721 285.601 174.676 283.926 169.44C283.42 167.967 283.36 166.41 283.75 164.912C284.141 163.414 284.97 162.024 286.159 160.873C286.159 160.873 288.953 158.729 293.699 160.158Z" fill="black"/>
<path d="M288.143 145C286.812 144.092 284.996 145.742 284.996 145.742L283.931 137.573C283.931 137.573 277.275 138.252 273.015 137.346C268.756 136.439 268.09 140.637 268.09 140.637C267.87 138.941 267.826 137.233 267.957 135.531C268.223 133.488 271.684 131.446 277.807 130.084C283.931 128.722 287.125 134.623 287.125 134.623C291.385 136.438 289.474 145.908 288.143 145Z" fill="#2F2E41"/>
</g>
<defs>
<clipPath id="clip0_1_3">
<rect width="324" height="277" fill="white"/>
</clipPath>
</defs>
</svg>
