<svg width="41" height="41" viewBox="0 0 41 41" fill="none" xmlns="http://www.w3.org/2000/svg">
<path d="M13.071 11.2377H6.81174C5.70504 11.2377 4.64366 11.6773 3.8611 12.4599C3.07854 13.2424 2.63891 14.3038 2.63891 15.4105V34.1883C2.63891 35.295 3.07854 36.3564 3.8611 37.1389C4.64366 37.9215 5.70504 38.3611 6.81174 38.3611H25.5895C26.6962 38.3611 27.7576 37.9215 28.5401 37.1389C29.3227 36.3564 29.7623 35.295 29.7623 34.1883V27.929" stroke="black" stroke-width="5.27" stroke-linecap="round" stroke-linejoin="round"/>
<path d="M13.0709 27.929H19.3301L37.0647 10.1945C37.8947 9.36445 38.361 8.23869 38.361 7.06486C38.361 5.89102 37.8947 4.76526 37.0647 3.93523C36.2346 3.1052 35.1089 2.6389 33.935 2.6389C32.7612 2.6389 31.6355 3.1052 30.8054 3.93523L13.0709 21.6698V27.929Z" stroke="black" stroke-width="5.27" stroke-linecap="round" stroke-linejoin="round"/>
<path d="M27.6756 7.06487L33.9348 13.3241" stroke="black" stroke-width="5.27" stroke-linecap="round" stroke-linejoin="round"/>
</svg>
