<svg width="27" height="24" viewBox="0 0 27 24" fill="none" xmlns="http://www.w3.org/2000/svg">
<path d="M25.3125 10.1271H5.29875L11.4244 2.76961C11.7108 2.425 11.8486 1.98071 11.8075 1.53449C11.7663 1.08827 11.5496 0.676672 11.205 0.390238C10.8604 0.103804 10.4161 -0.0340001 9.96988 0.00714066C9.52366 0.0482814 9.11206 0.264998 8.82562 0.609613L0.388125 10.7346C0.331359 10.8151 0.280596 10.8998 0.23625 10.9877C0.23625 11.0721 0.23625 11.1227 0.118125 11.2071C0.0416368 11.4006 0.00158814 11.6066 0 11.8146C0.00158814 12.0227 0.0416368 12.2286 0.118125 12.4221C0.118125 12.5065 0.118125 12.5571 0.23625 12.6415C0.280596 12.7295 0.331359 12.8141 0.388125 12.8946L8.82562 23.0196C8.98429 23.2101 9.18297 23.3633 9.40755 23.4683C9.63213 23.5733 9.87709 23.6275 10.125 23.6271C10.5193 23.6279 10.9014 23.4906 11.205 23.239C11.3759 23.0973 11.5171 22.9233 11.6207 22.727C11.7242 22.5307 11.788 22.3158 11.8083 22.0948C11.8287 21.8738 11.8053 21.6509 11.7394 21.439C11.6735 21.227 11.5665 21.0301 11.4244 20.8596L5.29875 13.5021H25.3125C25.76 13.5021 26.1893 13.3243 26.5057 13.0079C26.8222 12.6914 27 12.2622 27 11.8146C27 11.3671 26.8222 10.9378 26.5057 10.6214C26.1893 10.3049 25.76 10.1271 25.3125 10.1271Z" fill="#231F20"/>
</svg>
