<?xml version="1.0" ?><svg viewBox="0 0 64 64" xmlns="http://www.w3.org/2000/svg"><title/><g id="Notification"><path d="M51.79,49.1074A26.6212,26.6212,0,0,1,49,37.29V28A16.11,16.11,0,0,0,38,12.8073V10a6,6,0,0,0-12,0v2.8066A16.11,16.11,0,0,0,15,28v9.29a26.7151,26.7151,0,0,1-.707,6.0728,26.8063,26.8063,0,0,1-2.0855,5.75A2,2,0,0,0,14,52h9.059a8.9963,8.9963,0,0,0,17.882,0H50a2,2,0,0,0,1.79-2.8926ZM30,10a2.0023,2.0023,0,0,1,3.4058-1.4258A2.0236,2.0236,0,0,1,34,10v2.0308C33.6675,12.01,33.3335,12,33,12H31q-.5,0-1,.0308Zm2,46a5.0084,5.0084,0,0,1-4.8994-4h9.7988A5.0084,5.0084,0,0,1,32,56Zm7-8H17.0493a29.96,29.96,0,0,0,1.1387-3.7251A30.76,30.76,0,0,0,19,37.29V28a12.0756,12.0756,0,0,1,9.4229-11.7256A12.2137,12.2137,0,0,1,31,16h2a12.2,12.2,0,0,1,2.5724.2737A12.0766,12.0766,0,0,1,45,28v9.29A30.605,30.605,0,0,0,46.9517,48Z"/></g></svg>